<?xml version="1.0" encoding="utf-8"?>
<!-- Generator: Adobe Illustrator 25.0.1, SVG Export Plug-In . SVG Version: 6.00 Build 0)  -->
<svg version="1.1" id="Layer_1" xmlns="http://www.w3.org/2000/svg" xmlns:xlink="http://www.w3.org/1999/xlink" x="0px" y="0px"
	 viewBox="0 0 59.5 82.3" style="enable-background:new 0 0 59.5 82.3;" xml:space="preserve">
<style type="text/css">
	.st0{fill:#FFFFFF;}
</style>
<g>
	<path class="st0" d="M29.7,2.2C12.9,2.2,1.6,16.9,1.6,30.6c0,21.4,25.6,47.7,26.7,48.8c0.4,0.4,0.9,0.6,1.5,0.6s1.1-0.2,1.5-0.6
		c1.1-1.1,26.7-27.5,26.7-48.8C57.9,16.9,46.6,2.2,29.7,2.2z M46.5,41L46,41.2l-0.2-0.5l-1.4-4c-1.3,2.7-3.2,5-5.6,6.6
		c-2.8,2-6.1,3-9.6,3c-9.3,0-16.9-7.6-16.9-17c0-9.4,7.6-17,16.9-17c5.8,0,11.1,3,14.3,8l0.3,0.5L43.3,21l-4.8,1.8l-0.4,0.1L38,22.6
		c-2.1-2.8-5.3-4.4-8.7-4.4c-6.1,0-11,5-11,11.1c0,6.1,4.9,11.1,11,11.1c4.7,0,8.8-3,10.3-7.4l-4.8,1.7l-0.5,0.2l-0.2-0.5l-1.7-4.8
		l-0.2-0.5l0.5-0.2l13.1-4.7l0.5-0.2l0.2,0.5l5,14l0.2,0.5l-0.5,0.2L46.5,41z"/>
</g>
</svg>
